<?xml version="1.0" standalone="no"?>
<!DOCTYPE svg PUBLIC "-//W3C//DTD SVG 20010904//EN"
 "http://www.w3.org/TR/2001/REC-SVG-20010904/DTD/svg10.dtd">
<svg version="1.0" xmlns="http://www.w3.org/2000/svg"
 width="16.000000pt" height="16.000000pt" viewBox="0 0 16.000000 16.000000"
 preserveAspectRatio="xMidYMid meet">
<metadata>
Created by potrace 1.11, written by Peter Selinger 2001-2013
</metadata>
<g transform="translate(0.000000,16.000000) scale(0.002286,-0.002286)"
fill="#000000" stroke="none">
<path d="M2913 6273 c-408 -54 -713 -264 -862 -593 -64 -142 -81 -261 -81
-571 l0 -259 -364 0 -365 0 0 -303 1 -304 346 1 c191 1 355 0 365 -3 16 -3 17
-95 17 -1766 l0 -1762 408 1 407 0 5 1765 5 1764 753 1 752 1 1 -30 c0 -16 1
-811 2 -1765 l2 -1735 406 -1 407 -1 0 2069 0 2068 -1165 0 -1165 0 5 258 c2
141 7 270 11 285 33 139 118 229 253 264 78 20 104 22 356 22 l217 1 0 303 0
304 -313 -1 c-185 0 -351 -5 -404 -13z"/>
<path d="M4270 5874 l0 -411 444 0 444 0 0 412 0 411 -444 0 -444 0 0 -412z"/>
</g>
</svg>
